<svg xmlns="http://www.w3.org/2000/svg" width="1600" height="900" viewBox="0 0 1600 900"><g id="technical-base"><rect width="1600" height="900" fill="white"/>
<defs><marker id="arrow-data" viewBox="0 0 14 14" refX="12" refY="7" markerWidth="5" markerHeight="5" orient="auto-start-reverse" markerUnits="strokeWidth"><path d="M 2 2 L 12 7 L 2 12" fill="none" stroke="#ee8733" stroke-width="2.2"/></marker><marker id="arrow-control" viewBox="0 0 14 14" refX="12" refY="7" markerWidth="5" markerHeight="5" orient="auto-start-reverse" markerUnits="strokeWidth"><path d="M 2 2 L 12 7 L 2 12" fill="none" stroke="#1d2126" stroke-width="2.2"/></marker><marker id="arrow-feedback" viewBox="0 0 14 14" refX="12" refY="7" markerWidth="5" markerHeight="5" orient="auto-start-reverse" markerUnits="strokeWidth"><path d="M 2 2 L 12 7 L 2 12" fill="none" stroke="#3f7eaf" stroke-width="2.2"/></marker><marker id="arrow-physical" viewBox="0 0 14 14" refX="12" refY="7" markerWidth="5" markerHeight="5" orient="auto-start-reverse" markerUnits="strokeWidth"><path d="M 2 2 L 12 7 L 2 12" fill="none" stroke="#c84e3c" stroke-width="2.2"/></marker></defs>
<path id="edge-0" d="M 332.00,441.00 L 456.00,441.00" fill="none" stroke="#ee8733" stroke-width="3.2" stroke-linecap="round" stroke-linejoin="round" marker-end="url(#arrow-data)"/>
<path id="edge-1" d="M 728.00,441.00 L 848.00,441.00" fill="none" stroke="#ee8733" stroke-width="3.2" stroke-linecap="round" stroke-linejoin="round" marker-end="url(#arrow-data)"/>
<path id="edge-2" d="M 1136.00,441.00 L 1272.00,441.00" fill="none" stroke="#ee8733" stroke-width="3.2" stroke-linecap="round" stroke-linejoin="round" marker-end="url(#arrow-data)"/>
<g id="node-raw" data-kind="data"><rect x="84.0" y="360.0" width="248.0" height="162.0" rx="20" fill="white" stroke="#1d2126" stroke-width="2.5"/><path d="M 99.0,371.0 Q 208.0,367.0 315.0,371.0" fill="none" stroke="#1d2126" opacity="0.27" stroke-width="1.1"/><ellipse cx="111.0" cy="378.0" rx="13" ry="5" fill="none" stroke="#1d2126" stroke-width="2"/><path d="M 98.0,378.0 v15 q13,10 26,0 v-15" fill="none" stroke="#1d2126" stroke-width="2"/></g>
<g id="node-clean" data-kind="process"><rect x="456.0" y="360.0" width="272.0" height="162.0" rx="20" fill="white" stroke="#1d2126" stroke-width="2.5"/><path d="M 471.0,371.0 Q 592.0,367.0 711.0,371.0" fill="none" stroke="#1d2126" opacity="0.27" stroke-width="1.1"/><rect x="471.99999999999994" y="374.0" width="22" height="22" rx="4" fill="none" stroke="#ee8733" stroke-width="2"/><circle cx="482.99999999999994" cy="385.0" r="3" fill="#ee8733"/></g>
<g id="node-validate" data-kind="process"><rect x="848.0" y="360.0" width="288.0" height="162.0" rx="20" fill="white" stroke="#1d2126" stroke-width="2.5"/><path d="M 863.0,371.0 Q 992.0,367.0 1119.0,371.0" fill="none" stroke="#1d2126" opacity="0.27" stroke-width="1.1"/><rect x="864.0" y="374.0" width="22" height="22" rx="4" fill="none" stroke="#1d2126" stroke-width="2"/><circle cx="875.0" cy="385.0" r="3" fill="#1d2126"/></g>
<g id="node-report" data-kind="result"><rect x="1272.0" y="360.0" width="240.0" height="162.0" rx="20" fill="white" stroke="#1d2126" stroke-width="2.5"/><path d="M 1287.0,371.0 Q 1392.0,367.0 1495.0,371.0" fill="none" stroke="#1d2126" opacity="0.27" stroke-width="1.1"/><path d="M 1287.0,385.0 l8,8 16,-18" stroke="#3f7eaf" stroke-width="2.8" fill="none"/></g>
<g id="minimaladam" transform="translate(400.0,441.0) scale(1.00)"><path d="M -17,21 l-8,20 M 13,21 l6,20" stroke="#1d2126" stroke-width="3" stroke-linecap="round" fill="none"/><path d="M -16,-14 Q -28,-13 -24,8 Q -18,27 3,26 Q 27,25 28,3 Q 26,-26 4,-31 Q -15,-32 -16,-14 Z" fill="#1d2126"/><ellipse cx="-3" cy="-9" rx="3.2" ry="4.5" fill="white"/><ellipse cx="13" cy="-8" rx="3.2" ry="4.5" fill="white"/><path d="M 22,5 Q 31,-1 45,-5" stroke="#1d2126" fill="none" stroke-width="3" stroke-linecap="round"/><circle cx="45" cy="-5" r="3.2" fill="#1d2126"/></g></g></svg>
